<svg width="69" height="65" viewBox="0 0 69 65" fill="none" xmlns="http://www.w3.org/2000/svg">
<path fill-rule="evenodd" clip-rule="evenodd" d="M62.0562 43.4452C62.4329 43.2876 62.8589 43.2972 63.2281 43.4718C63.9473 43.812 64.2546 44.6707 63.9147 45.3899C60.3642 53.047 54.055 59.082 46.2479 62.2891C29.1302 69.3206 9.55339 61.1442 2.52187 44.0266C-4.50965 26.9091 3.66675 7.3323 20.7843 0.300595C21.161 0.143034 21.5871 0.152578 21.9562 0.327245C22.6754 0.667396 22.9828 1.52615 22.6426 2.24534C19.0218 10.0141 18.8255 18.9455 22.1015 26.8658C28.5604 42.4813 46.4552 49.9041 62.0706 43.4452H62.0562ZM68.6251 19.5322C68.3118 19.2819 67.9158 19.1585 67.5159 19.1864H61.4367L67.1269 12.8336L67.6455 12.1853L67.9913 11.7676C68.0858 11.6336 68.1632 11.4885 68.2217 11.3354C68.2871 11.1703 68.3211 10.9944 68.3226 10.8168C68.3627 10.3967 68.1546 9.99156 67.7896 9.77962C67.298 9.53689 66.7527 9.42291 66.205 9.4483H59.1463C58.7688 9.42255 58.395 9.53527 58.0947 9.76522C57.8465 9.97644 57.7084 10.2894 57.7201 10.6151C57.7201 11.1049 57.8786 11.393 58.2099 11.5083C58.6781 11.6406 59.1643 11.699 59.6505 11.6812H64.2602C64.0681 11.95 63.8185 12.2669 63.5111 12.6319L62.3155 13.986L60.7597 15.7147L58.9014 17.7747C58.3958 18.3365 58.0304 18.758 57.7984 19.0257L57.7983 19.0258L57.7972 19.027C57.7323 19.102 57.6778 19.1648 57.6337 19.2153C57.4459 19.443 57.3393 19.7268 57.3312 20.022C57.3119 20.4192 57.4704 20.8045 57.7633 21.0736C58.1433 21.3599 58.6143 21.498 59.0886 21.4625H67.5015C67.9039 21.494 68.304 21.3761 68.6251 21.1312C68.8698 20.9174 69.007 20.6061 68.9996 20.2813C68.9732 19.9933 68.8396 19.7259 68.6251 19.5322ZM39.7132 19.9931C40.1131 19.9652 40.5091 20.0886 40.8224 20.3389C41.0724 20.567 41.2094 20.8937 41.197 21.232C41.2044 21.5569 41.0672 21.8682 40.8224 22.0819C40.5014 22.3268 40.1013 22.4448 39.6988 22.4133H31.286C30.7964 22.4439 30.3132 22.2896 29.9318 21.9811C29.4017 21.4946 29.3448 20.6783 29.8022 20.1228C29.8464 20.0723 29.901 20.0093 29.9661 19.9342L29.9666 19.9336L29.9668 19.9334L29.9668 19.9333L29.9668 19.9333C30.1989 19.6656 30.5643 19.244 31.0699 18.6822L32.9282 16.6222L34.484 14.8936L35.6797 13.5395C35.9966 13.1745 36.251 12.8575 36.4432 12.5887H31.8334C31.3472 12.6067 30.861 12.5484 30.3928 12.4158C30.0615 12.3006 29.903 12.0125 29.903 11.5227C29.8913 11.1969 30.0294 10.884 30.2776 10.6727C30.5779 10.4428 30.9518 10.3301 31.3292 10.3558H38.4743C38.9944 10.3285 39.5133 10.4273 39.9869 10.6439C40.3519 10.8559 40.5601 11.261 40.5199 11.6811C40.5185 11.8587 40.4845 12.0346 40.4191 12.1997C40.3609 12.353 40.2835 12.4983 40.1886 12.6319L39.8429 13.0497L39.3099 13.6403L33.6197 19.9931H39.7132ZM52.6349 27.311C52.9567 27.2852 53.276 27.383 53.5281 27.5847C53.7269 27.7649 53.8373 28.0226 53.8306 28.2905C53.8382 28.5475 53.733 28.7949 53.5425 28.9676C53.2864 29.1603 52.9688 29.2525 52.6494 29.2269H45.9364C45.5739 29.2581 45.212 29.1612 44.9136 28.9532C44.5169 28.5693 44.4733 27.948 44.8128 27.5126C44.9761 27.3014 45.3169 26.9076 45.8355 26.3314L47.2761 24.6892L48.515 23.2486L49.4657 22.1682L49.5736 22.0351C49.7705 21.7924 49.9362 21.5882 50.0708 21.4047H46.4406C46.0513 21.4189 45.6621 21.3701 45.2881 21.2606C45.0288 21.1598 44.8992 20.9293 44.8992 20.5404C44.8911 20.2803 45.0025 20.0308 45.2017 19.8633C45.4399 19.6793 45.7367 19.5873 46.0372 19.604H51.6842C52.1003 19.5813 52.5156 19.6606 52.8942 19.8345C53.1849 20.0074 53.3482 20.3338 53.312 20.67C53.3088 20.8134 53.2794 20.9549 53.2256 21.0878C53.1782 21.2106 53.1152 21.3267 53.0383 21.4335L52.7646 21.7648L52.3324 22.2402L47.7947 27.311H52.6349Z" fill="#CBCFD4"/>
</svg>
