<svg width="107" height="36" viewBox="0 0 107 36" fill="none" xmlns="http://www.w3.org/2000/svg">
<path d="M0.178656 1.4H11.1047V4.604H4.35466V6.062H7.36066C8.89666 6.062 10.0727 6.392 10.8887 7.052C11.7167 7.7 12.1307 8.642 12.1307 9.878C12.1307 11.162 11.6627 12.17 10.7267 12.902C9.79066 13.634 8.48866 14 6.82066 14H0.178656V1.4ZM6.53266 11.03C6.95266 11.03 7.27666 10.94 7.50466 10.76C7.74466 10.58 7.86466 10.322 7.86466 9.986C7.86466 9.338 7.42066 9.014 6.53266 9.014H4.35466V11.03H6.53266ZM21.2588 3.974C22.1228 3.974 22.9148 4.184 23.6348 4.604C24.3668 5.012 24.9428 5.606 25.3628 6.386C25.7948 7.166 26.0108 8.066 26.0108 9.086C26.0108 10.106 25.7948 11.006 25.3628 11.786C24.9428 12.554 24.3668 13.148 23.6348 13.568C22.9148 13.976 22.1228 14.18 21.2588 14.18C20.1668 14.18 19.3328 13.898 18.7568 13.334V17.492H14.6888V4.154H18.5588V4.964C19.1468 4.304 20.0468 3.974 21.2588 3.974ZM20.2868 11.012C20.7548 11.012 21.1388 10.844 21.4388 10.508C21.7388 10.172 21.8888 9.698 21.8888 9.086C21.8888 8.474 21.7388 8 21.4388 7.664C21.1388 7.316 20.7548 7.142 20.2868 7.142C19.8188 7.142 19.4348 7.316 19.1348 7.664C18.8348 8 18.6848 8.474 18.6848 9.086C18.6848 9.698 18.8348 10.172 19.1348 10.508C19.4348 10.844 19.8188 11.012 20.2868 11.012ZM38.0798 4.154V14H34.4798V11.498H33.4898L31.8878 14H27.5858L29.7098 10.922C29.0858 10.622 28.6058 10.22 28.2698 9.716C27.9458 9.212 27.7838 8.624 27.7838 7.952C27.7838 6.764 28.2398 5.834 29.1518 5.162C30.0638 4.49 31.3118 4.154 32.8958 4.154H38.0798ZM32.9858 7.304C32.2898 7.304 31.9418 7.568 31.9418 8.096C31.9418 8.396 32.0258 8.618 32.1938 8.762C32.3738 8.894 32.6378 8.96 32.9858 8.96H34.4798V7.304H32.9858ZM41.2556 4.154H45.3056V7.61H48.0776V4.154H52.1276V14H48.0776V10.796H45.3056V14H41.2556V4.154ZM60.4609 14.18C59.3449 14.18 58.3429 13.964 57.4549 13.532C56.5789 13.1 55.8889 12.494 55.3849 11.714C54.8929 10.934 54.6469 10.052 54.6469 9.068C54.6469 8.084 54.8929 7.208 55.3849 6.44C55.8889 5.66 56.5789 5.054 57.4549 4.622C58.3429 4.19 59.3449 3.974 60.4609 3.974C61.6609 3.974 62.6869 4.232 63.5389 4.748C64.3909 5.264 64.9789 5.978 65.3029 6.89L62.1529 8.438C61.7689 7.574 61.1989 7.142 60.4429 7.142C59.9629 7.142 59.5609 7.31 59.2369 7.646C58.9249 7.982 58.7689 8.456 58.7689 9.068C58.7689 9.692 58.9249 10.172 59.2369 10.508C59.5609 10.844 59.9629 11.012 60.4429 11.012C61.1989 11.012 61.7689 10.58 62.1529 9.716L65.3029 11.264C64.9789 12.176 64.3909 12.89 63.5389 13.406C62.6869 13.922 61.6609 14.18 60.4609 14.18ZM72.5239 10.724H71.7499V14H67.6819V4.154H71.7499V7.61H72.6319L74.7919 4.154H79.0759L75.9079 8.87L79.2739 14H74.4859L72.5239 10.724ZM81.4399 4.154H85.4899V8.6L88.8919 4.154H92.6359V14H88.5859V9.536L85.2019 14H81.4399V4.154ZM95.7956 4.154H99.8456V8.6L103.248 4.154H106.992V14H102.942V9.536L99.5576 14H95.7956V4.154ZM101.124 3.344C99.8756 3.344 98.9636 3.092 98.3876 2.588C97.8116 2.072 97.5236 1.274 97.5236 0.194H100.134C100.134 0.59 100.2 0.89 100.332 1.094C100.476 1.286 100.734 1.382 101.106 1.382C101.778 1.382 102.114 0.985999 102.114 0.194H104.76C104.76 1.274 104.466 2.072 103.878 2.588C103.302 3.092 102.384 3.344 101.124 3.344ZM13.4082 22.154L9.35823 32.198C8.84223 33.482 8.20023 34.382 7.43223 34.898C6.66423 35.414 5.72223 35.672 4.60623 35.672C4.05423 35.672 3.49623 35.588 2.93223 35.42C2.38023 35.264 1.94223 35.054 1.61823 34.79L2.96823 32C3.17223 32.156 3.40023 32.282 3.65223 32.378C3.91623 32.474 4.16823 32.522 4.40823 32.522C4.85223 32.522 5.18823 32.39 5.41623 32.126L1.27623 22.154H5.45223L7.48623 27.428L9.55623 22.154H13.4082ZM22.1377 21.974C23.0017 21.974 23.7937 22.184 24.5137 22.604C25.2457 23.012 25.8217 23.606 26.2417 24.386C26.6737 25.166 26.8897 26.066 26.8897 27.086C26.8897 28.106 26.6737 29.006 26.2417 29.786C25.8217 30.554 25.2457 31.148 24.5137 31.568C23.7937 31.976 23.0017 32.18 22.1377 32.18C21.0457 32.18 20.2117 31.898 19.6357 31.334V35.492H15.5677V22.154H19.4377V22.964C20.0257 22.304 20.9257 21.974 22.1377 21.974ZM21.1657 29.012C21.6337 29.012 22.0177 28.844 22.3177 28.508C22.6177 28.172 22.7677 27.698 22.7677 27.086C22.7677 26.474 22.6177 26 22.3177 25.664C22.0177 25.316 21.6337 25.142 21.1657 25.142C20.6977 25.142 20.3137 25.316 20.0137 25.664C19.7137 26 19.5637 26.474 19.5637 27.086C19.5637 27.698 19.7137 28.172 20.0137 28.508C20.3137 28.844 20.6977 29.012 21.1657 29.012ZM35.9643 23.252C37.4163 23.252 38.5443 23.642 39.3483 24.422C40.1523 25.202 40.5543 26.276 40.5543 27.644C40.5543 28.568 40.3023 29.384 39.7983 30.092C39.3063 30.788 38.6283 31.328 37.7643 31.712C36.9003 32.096 35.9343 32.288 34.8663 32.288C33.1143 32.288 31.6983 31.766 30.6183 30.722C29.5503 29.678 29.0163 28.07 29.0163 25.898C29.0163 21.806 30.8403 19.43 34.4883 18.77L39.3843 17.888L39.9243 21.218L35.7843 21.956C34.8123 22.124 34.1103 22.382 33.6783 22.73C33.2583 23.078 33.0003 23.588 32.9043 24.26C33.7443 23.588 34.7643 23.252 35.9643 23.252ZM34.8663 29.282C35.3583 29.282 35.7363 29.12 36.0003 28.796C36.2763 28.472 36.4143 28.082 36.4143 27.626C36.4143 27.122 36.2703 26.732 35.9823 26.456C35.7063 26.18 35.3343 26.042 34.8663 26.042C34.3863 26.042 34.0023 26.186 33.7143 26.474C33.4263 26.75 33.2823 27.14 33.2823 27.644C33.2823 28.124 33.4263 28.52 33.7143 28.832C34.0143 29.132 34.3983 29.282 34.8663 29.282ZM47.0141 21.974C48.7421 21.974 50.0621 22.364 50.9741 23.144C51.8861 23.912 52.3421 25.1 52.3421 26.708V32H48.5621V30.704C48.0941 31.688 47.1641 32.18 45.7721 32.18C44.9921 32.18 44.3261 32.048 43.7741 31.784C43.2341 31.508 42.8201 31.142 42.5321 30.686C42.2561 30.218 42.1181 29.696 42.1181 29.12C42.1181 28.148 42.4901 27.41 43.2341 26.906C43.9781 26.402 45.1061 26.15 46.6181 26.15H48.2561C48.1241 25.382 47.5061 24.998 46.4021 24.998C45.9581 24.998 45.5081 25.07 45.0521 25.214C44.5961 25.346 44.2061 25.532 43.8821 25.772L42.5861 23.09C43.1501 22.742 43.8281 22.472 44.6201 22.28C45.4241 22.076 46.2221 21.974 47.0141 21.974ZM46.9961 29.732C47.2841 29.732 47.5421 29.654 47.7701 29.498C47.9981 29.342 48.1661 29.108 48.2741 28.796V28.112H47.2661C46.4381 28.112 46.0241 28.388 46.0241 28.94C46.0241 29.168 46.1081 29.36 46.2761 29.516C46.4561 29.66 46.6961 29.732 46.9961 29.732ZM55.2598 22.154H59.3098V25.61H62.0818V22.154H66.1318V32H62.0818V28.796H59.3098V32H55.2598V22.154ZM69.2991 22.154H73.3491V26.6L76.7511 22.154H80.4951V32H76.4451V27.536L73.0611 32H69.2991V22.154ZM88.8208 32.18C87.7048 32.18 86.7028 31.964 85.8148 31.532C84.9388 31.1 84.2488 30.494 83.7448 29.714C83.2528 28.934 83.0068 28.052 83.0068 27.068C83.0068 26.084 83.2528 25.208 83.7448 24.44C84.2488 23.66 84.9388 23.054 85.8148 22.622C86.7028 22.19 87.7048 21.974 88.8208 21.974C90.0208 21.974 91.0468 22.232 91.8988 22.748C92.7508 23.264 93.3388 23.978 93.6628 24.89L90.5128 26.438C90.1288 25.574 89.5588 25.142 88.8028 25.142C88.3228 25.142 87.9208 25.31 87.5968 25.646C87.2848 25.982 87.1288 26.456 87.1288 27.068C87.1288 27.692 87.2848 28.172 87.5968 28.508C87.9208 28.844 88.3228 29.012 88.8028 29.012C89.5588 29.012 90.1288 28.58 90.5128 27.716L93.6628 29.264C93.3388 30.176 92.7508 30.89 91.8988 31.406C91.0468 31.922 90.0208 32.18 88.8208 32.18ZM105.454 25.322H102.448V32H98.3976V25.322H95.3916V22.154H105.454V25.322Z" fill="white"/>
</svg>
