<svg width="20" height="23" viewBox="0 0 20 23" fill="none" xmlns="http://www.w3.org/2000/svg">
<path fill-rule="evenodd" clip-rule="evenodd" d="M10.1483 2.31355C10.1483 3.59129 9.11249 4.62711 7.83475 4.62711C6.55701 4.62711 5.52119 3.59129 5.52119 2.31355C5.52119 1.03581 6.55701 0 7.83475 0C9.11249 0 10.1483 1.03581 10.1483 2.31355ZM6.94097 7.91288C4.67204 7.23026 2.54629 6.22266 0.57704 4.8954C-0.775529 3.9837 0.496459 1.7787 1.86168 2.69706C3.68309 3.92509 5.60639 4.85478 7.7015 5.48211C8.18166 5.16978 8.77503 5.04591 9.30381 5.21639C11.4575 5.20707 13.5886 5.09452 15.6957 4.62635C17.296 4.27139 17.9746 6.7248 16.373 7.08042C14.6368 7.46535 12.8794 7.64915 11.1106 7.72174C11.8225 9.13691 12.5743 10.5381 13.6732 11.6849C14.0035 12.0279 14.1667 12.4061 14.208 12.7804C14.495 13.168 14.7913 13.5469 15.1117 13.9032C15.1364 13.931 15.1684 13.9709 15.2057 14.0174C15.3759 14.2296 15.657 14.5801 15.8722 14.5512C16.1859 14.5116 16.5855 13.9621 16.8384 13.6144C16.8964 13.5347 16.9466 13.4656 16.9863 13.4157C18.0119 12.1344 19.7994 13.9478 18.7858 15.2145C17.7755 16.4758 16.0147 17.843 14.3911 16.6636C13.8517 16.2727 13.3848 15.8005 12.9553 15.2884C12.5604 17.3356 12.3552 19.452 12.4478 21.5198C12.5217 23.1594 9.97776 23.1528 9.90317 21.5198C9.79196 19.0331 10.095 16.4492 10.6231 14.0004C9.29128 12.4835 8.3824 10.7186 7.46385 8.93486C7.30852 8.63322 7.1529 8.33103 6.99492 8.02942C6.97909 7.9993 6.96601 7.96958 6.95296 7.93995C6.94899 7.93092 6.94502 7.9219 6.94097 7.91288Z" fill="#A154F2"/>
</svg>
