<svg width="19" height="15" viewBox="0 0 19 15" fill="none" xmlns="http://www.w3.org/2000/svg">
<path fill-rule="evenodd" clip-rule="evenodd" d="M5.98629 0H6.638L4.45155 6.55351L1.76192 14.6151H0L4.82417 2.83716L5.98629 0ZM9.15541 0L9.10664 1.21255H9.89327L9.84458 0H11.7589L13.4576 6.45107L15.6073 14.6151H10.4318L10.383 13.4025H8.61693C8.60057 13.8067 8.58439 14.2108 8.5682 14.6151H3.39261L7.24108 0H9.15541ZM9.96632 3.02809L9.59309 3.02803L9.03371 3.028L8.89824 6.39974H10.1018C10.0631 5.43978 10.0246 4.47973 9.98605 3.51969L9.98573 3.51173L9.96632 3.02809ZM10.3101 11.5869L10.1747 8.21531L8.82536 8.21523L8.6899 11.5869H10.3101ZM14.7537 4.24784C14.1737 2.83191 13.5937 1.41596 13.0137 0H12.362L17.2381 14.6151H19C17.5847 11.1592 16.1692 7.70356 14.7537 4.24784Z" fill="#30363D"/>
</svg>
