<svg width="12" height="18" viewBox="0 0 12 18" fill="none" xmlns="http://www.w3.org/2000/svg">
<path d="M9.75 0H2.25C1.65348 0.000694729 1.08158 0.237971 0.659777 0.659777C0.237971 1.08158 0.000694729 1.65348 0 2.25V15.75C0.000694729 16.3465 0.237971 16.9184 0.659777 17.3402C1.08158 17.762 1.65348 17.9993 2.25 18H9.75C10.3465 17.9993 10.9184 17.762 11.3402 17.3402C11.762 16.9184 11.9993 16.3465 12 15.75V2.25C11.9993 1.65348 11.762 1.08158 11.3402 0.659777C10.9184 0.237971 10.3465 0.000694729 9.75 0V0ZM6 16.5C5.55499 16.5 5.11998 16.368 4.74997 16.1208C4.37996 15.8736 4.09157 15.5222 3.92127 15.111C3.75097 14.6999 3.70642 14.2475 3.79323 13.811C3.88005 13.3746 4.09434 12.9737 4.40901 12.659C4.72368 12.3443 5.12459 12.13 5.56105 12.0432C5.9975 11.9564 6.4499 12.001 6.86104 12.1713C7.27217 12.3416 7.62357 12.63 7.87081 13C8.11804 13.37 8.25 13.805 8.25 14.25C8.24933 14.8465 8.01206 15.4184 7.59025 15.8403C7.16844 16.2621 6.59653 16.4993 6 16.5ZM6 11.25C5.55499 11.25 5.11998 11.118 4.74997 10.8708C4.37996 10.6236 4.09157 10.2722 3.92127 9.86104C3.75097 9.4499 3.70642 8.9975 3.79323 8.56105C3.88005 8.12459 4.09434 7.72368 4.40901 7.40901C4.72368 7.09434 5.12459 6.88005 5.56105 6.79323C5.9975 6.70642 6.4499 6.75097 6.86104 6.92127C7.27217 7.09157 7.62357 7.37996 7.87081 7.74997C8.11804 8.11998 8.25 8.55499 8.25 9C8.24933 9.59653 8.01206 10.1684 7.59025 10.5903C7.16844 11.0121 6.59653 11.2493 6 11.25ZM6 6C5.55499 6 5.11998 5.86804 4.74997 5.62081C4.37996 5.37357 4.09157 5.02217 3.92127 4.61104C3.75097 4.1999 3.70642 3.7475 3.79323 3.31105C3.88005 2.87459 4.09434 2.47368 4.40901 2.15901C4.72368 1.84434 5.12459 1.63005 5.56105 1.54323C5.9975 1.45642 6.4499 1.50097 6.86104 1.67127C7.27217 1.84157 7.62357 2.12996 7.87081 2.49997C8.11804 2.86998 8.25 3.30499 8.25 3.75C8.24933 4.34653 8.01206 4.91844 7.59025 5.34025C7.16844 5.76206 6.59653 5.99933 6 6Z" fill="#6FCF97"/>
</svg>
