<svg width="34" height="46" viewBox="0 0 34 46" fill="none" xmlns="http://www.w3.org/2000/svg">
<path d="M16.9993 0C7.62634 0 0 7.59731 0 16.9355C0 19.3713 0.500451 21.6969 1.48671 23.8483C5.737 33.1136 13.886 42.8957 16.2829 45.6728C16.4625 45.8804 16.7243 46 16.9998 46C17.2753 46 17.5371 45.8804 17.7167 45.6728C20.1126 42.8962 28.2616 33.1145 32.5133 23.8483C33.5 21.6969 34 19.3713 34 16.9355C33.9991 7.59731 26.3727 0 16.9993 0Z" fill="#A154F2"/>
<path fill-rule="evenodd" clip-rule="evenodd" d="M17.0615 11.0184C17.0615 12.2961 16.0257 13.3319 14.748 13.3319C13.4702 13.3319 12.4344 12.2961 12.4344 11.0184C12.4344 9.74065 13.4702 8.70483 14.748 8.70483C16.0257 8.70483 17.0615 9.74065 17.0615 11.0184ZM13.8542 16.6177C11.5852 15.9351 9.4595 14.9275 7.49025 13.6002C6.13768 12.6885 7.40967 10.4835 8.77489 11.4019C10.5963 12.6299 12.5196 13.5596 14.6147 14.1869C15.0949 13.8746 15.6882 13.7507 16.217 13.9212C18.3707 13.9119 20.5018 13.7994 22.6089 13.3312C24.2092 12.9762 24.8878 15.4296 23.2862 15.7853C21.55 16.1702 19.7926 16.354 18.0238 16.4266C18.7357 17.8417 19.4876 19.2429 20.5864 20.3897C20.9167 20.7327 21.0799 21.111 21.1212 21.4852C21.4082 21.8728 21.7045 22.2518 22.0249 22.608C22.0497 22.6358 22.0816 22.6757 22.1189 22.7222C22.2891 22.9344 22.5702 23.285 22.7854 23.256C23.0991 23.2165 23.4987 22.667 23.7516 22.3193C23.8096 22.2396 23.8598 22.1705 23.8996 22.1206C24.9251 20.8392 26.7126 22.6527 25.699 23.9193C24.6887 25.1807 22.9279 26.5479 21.3043 25.3685C20.7649 24.9775 20.298 24.5054 19.8685 23.9932C19.4736 26.0404 19.2685 28.1568 19.361 30.2246C19.4349 31.8642 16.891 31.8576 16.8164 30.2246C16.7052 27.7379 17.0082 25.154 17.5363 22.7053C16.2045 21.1883 15.2956 19.4234 14.3771 17.6397C14.2217 17.338 14.0661 17.0359 13.9081 16.7343C13.8923 16.7041 13.8792 16.6744 13.8662 16.6448C13.8622 16.6358 13.8582 16.6267 13.8542 16.6177Z" fill="white"/>
</svg>
