<svg width="34" height="46" viewBox="0 0 34 46" fill="none" xmlns="http://www.w3.org/2000/svg">
<path d="M16.9993 0C7.62634 0 0 7.59731 0 16.9355C0 19.3713 0.500451 21.6969 1.48671 23.8483C5.737 33.1136 13.886 42.8957 16.2829 45.6728C16.4625 45.8804 16.7243 46 16.9998 46C17.2753 46 17.5371 45.8804 17.7167 45.6728C20.1126 42.8962 28.2616 33.1145 32.5133 23.8483C33.5 21.6969 34 19.3713 34 16.9355C33.9991 7.59731 26.3727 0 16.9993 0Z" fill="#F27A54"/>
<path fill-rule="evenodd" clip-rule="evenodd" d="M7.34998 9V25.5H8.64998V24.4029H25.597V25.5H26.897V9H25.597V9.51467H8.64998V9H7.34998ZM25.597 22.3853V11.5954L18.2843 16.9007L25.597 22.3853ZM24.3872 23.1029L17.1829 17.6997L9.7353 23.1029H24.3872ZM17.1958 16.0843L24.4593 10.8147H10.1695L17.1958 16.0843ZM8.64998 11.3V22.2842L16.0944 16.8833L8.64998 11.3Z" fill="white"/>
</svg>
