<svg width="15" height="19" viewBox="0 0 15 19" fill="none" xmlns="http://www.w3.org/2000/svg">
<path d="M6.425 11.925C6.425 11.0583 6.61667 10.3417 7 9.775C7.4 9.20833 7.975 8.58333 8.725 7.9C9.275 7.4 9.675 6.98333 9.925 6.65C10.1917 6.3 10.325 5.90833 10.325 5.475C10.325 4.85833 10.075 4.375 9.575 4.025C9.09167 3.65833 8.44167 3.475 7.625 3.475C6.84167 3.475 6.14167 3.64167 5.525 3.975C4.925 4.29167 4.41667 4.74167 4 5.325L0.975 3.55C1.675 2.48333 2.61667 1.65833 3.8 1.075C5 0.491666 6.41667 0.2 8.05 0.2C9.96667 0.2 11.5 0.608333 12.65 1.425C13.8167 2.24167 14.4 3.375 14.4 4.825C14.4 5.50833 14.2833 6.10833 14.05 6.625C13.8333 7.14167 13.5583 7.58333 13.225 7.95C12.9083 8.3 12.4917 8.70833 11.975 9.175C11.3583 9.725 10.9083 10.1917 10.625 10.575C10.3417 10.9417 10.2 11.3917 10.2 11.925H6.425ZM8.325 18.2C7.64167 18.2 7.06667 17.9833 6.6 17.55C6.15 17.1 5.925 16.5583 5.925 15.925C5.925 15.2917 6.15 14.7667 6.6 14.35C7.05 13.9167 7.625 13.7 8.325 13.7C9.025 13.7 9.6 13.9167 10.05 14.35C10.5 14.7667 10.725 15.2917 10.725 15.925C10.725 16.5583 10.4917 17.1 10.025 17.55C9.575 17.9833 9.00833 18.2 8.325 18.2Z" fill="white"/>
</svg>
