<svg width="25" height="21" viewBox="0 0 25 21" fill="none" xmlns="http://www.w3.org/2000/svg">
<path d="M14.1046 15.0348C13.6597 15.3077 13.0898 15.458 12.5001 15.458C11.9103 15.458 11.3404 15.3077 10.8955 15.0348L3.63103 10.5794C3.63103 10.5794 2.97534 10.1775 2.97534 11.088C2.97534 12.1219 2.97534 15.2236 2.97534 15.2236C2.97534 15.265 2.97534 15.4726 2.97534 15.537C2.97534 17.8806 7.23964 20.4072 12.4999 20.4072C17.7601 20.4072 22.0244 17.8807 22.0244 15.537C22.0244 15.4726 22.0244 15.265 22.0244 15.2236C22.0244 15.2236 22.0244 11.9338 22.0244 10.8372C22.0244 10.1064 21.5583 10.4635 21.5583 10.4635L14.1046 15.0348Z" fill="white"/>
<path d="M24.5814 7.03557C25.1395 6.69325 25.1395 6.13306 24.5814 5.79068L13.5149 0.256739C12.9567 -0.0855797 12.0433 -0.0855797 11.4851 0.256739L0.41864 5.79068C-0.139547 6.133 -0.139547 6.69319 0.41864 7.03557L11.4851 13.8227C12.0433 14.1651 12.9567 14.1651 13.5149 13.8227" fill="white"/>
<path d="M24.1237 17.0958C24.1237 15.2218 24.1237 9.59992 24.1237 9.59992C24.1237 9.59992 24.1289 9.24488 23.9183 9.36212C23.7493 9.45618 23.335 9.68708 23.1891 9.81404C23.0206 9.96048 23.0585 10.2892 23.0585 10.2892C23.0585 10.2892 23.0585 15.3942 23.0585 17.0958C23.0585 17.1924 22.9755 17.2385 22.9359 17.2618C22.5534 17.4867 22.2961 17.9019 22.2961 18.3778C22.2961 19.093 22.8759 19.6728 23.5912 19.6728C24.3064 19.6728 24.8861 19.093 24.8861 18.3778C24.8861 17.9 24.627 17.4836 24.242 17.2593C24.2037 17.237 24.1237 17.1923 24.1237 17.0958Z" fill="white"/>
</svg>
