<svg width="34" height="46" viewBox="0 0 34 46" fill="none" xmlns="http://www.w3.org/2000/svg">
<path d="M16.9993 0C7.62634 0 0 7.59731 0 16.9355C0 19.3713 0.500451 21.6969 1.48671 23.8483C5.737 33.1136 13.886 42.8957 16.2829 45.6728C16.4625 45.8804 16.7243 46 16.9998 46C17.2753 46 17.5371 45.8804 17.7167 45.6728C20.1126 42.8962 28.2616 33.1145 32.5133 23.8483C33.5 21.6969 34 19.3713 34 16.9355C33.9991 7.59731 26.3727 0 16.9993 0Z" fill="#30363D"/>
<path fill-rule="evenodd" clip-rule="evenodd" d="M13.9863 9.19238H14.638C13.0126 14.0641 11.3875 18.9357 9.76196 23.8074H8C9.99536 18.9357 11.9908 14.0641 13.9863 9.19238ZM17.1555 9.19238L17.1067 10.4049H17.8933L17.8446 9.19238H19.7589C21.0417 14.0641 22.3246 18.9357 23.6074 23.8074H18.4318L18.3831 22.5949H16.6169L16.6027 22.9485L16.5682 23.8074H11.3926L15.2411 9.19238H17.1555ZM17.9664 12.2205L17.6077 12.2204H17.0338L16.8983 15.5921H18.1018L18.0521 14.3561L17.9664 12.2205ZM18.3102 20.7793L18.1747 17.4077L16.8254 17.4076L16.6899 20.7793H18.3102ZM27.0001 23.8074C25.0048 18.9357 23.0092 14.0641 21.0138 9.19238H20.3621L25.2381 23.8074H27.0001Z" fill="white"/>
</svg>
