<svg width="34" height="46" viewBox="0 0 34 46" fill="none" xmlns="http://www.w3.org/2000/svg">
<path d="M16.9993 0C7.62634 0 0 7.59731 0 16.9355C0 19.3713 0.500451 21.6969 1.48671 23.8483C5.737 33.1136 13.886 42.8957 16.2829 45.6728C16.4625 45.8804 16.7243 46 16.9998 46C17.2753 46 17.5371 45.8804 17.7167 45.6728C20.1126 42.8962 28.2616 33.1145 32.5133 23.8483C33.5 21.6969 34 19.3713 34 16.9355C33.9991 7.59731 26.3727 0 16.9993 0Z" fill="#6FCF97"/>
<path d="M20.75 10H13.25C12.6535 10.0007 12.0816 10.238 11.6598 10.6598C11.238 11.0816 11.0007 11.6535 11 12.25V25.75C11.0007 26.3465 11.238 26.9184 11.6598 27.3402C12.0816 27.762 12.6535 27.9993 13.25 28H20.75C21.3465 27.9993 21.9184 27.762 22.3402 27.3402C22.762 26.9184 22.9993 26.3465 23 25.75V12.25C22.9993 11.6535 22.762 11.0816 22.3402 10.6598C21.9184 10.238 21.3465 10.0007 20.75 10V10ZM17 26.5C16.555 26.5 16.12 26.368 15.75 26.1208C15.38 25.8736 15.0916 25.5222 14.9213 25.111C14.751 24.6999 14.7064 24.2475 14.7932 23.811C14.88 23.3746 15.0943 22.9737 15.409 22.659C15.7237 22.3443 16.1246 22.13 16.561 22.0432C16.9975 21.9564 17.4499 22.001 17.861 22.1713C18.2722 22.3416 18.6236 22.63 18.8708 23C19.118 23.37 19.25 23.805 19.25 24.25C19.2493 24.8465 19.0121 25.4184 18.5903 25.8403C18.1684 26.2621 17.5965 26.4993 17 26.5ZM17 21.25C16.555 21.25 16.12 21.118 15.75 20.8708C15.38 20.6236 15.0916 20.2722 14.9213 19.861C14.751 19.4499 14.7064 18.9975 14.7932 18.561C14.88 18.1246 15.0943 17.7237 15.409 17.409C15.7237 17.0943 16.1246 16.88 16.561 16.7932C16.9975 16.7064 17.4499 16.751 17.861 16.9213C18.2722 17.0916 18.6236 17.38 18.8708 17.75C19.118 18.12 19.25 18.555 19.25 19C19.2493 19.5965 19.0121 20.1684 18.5903 20.5903C18.1684 21.0121 17.5965 21.2493 17 21.25ZM17 16C16.555 16 16.12 15.868 15.75 15.6208C15.38 15.3736 15.0916 15.0222 14.9213 14.611C14.751 14.1999 14.7064 13.7475 14.7932 13.311C14.88 12.8746 15.0943 12.4737 15.409 12.159C15.7237 11.8443 16.1246 11.63 16.561 11.5432C16.9975 11.4564 17.4499 11.501 17.861 11.6713C18.2722 11.8416 18.6236 12.13 18.8708 12.5C19.118 12.87 19.25 13.305 19.25 13.75C19.2493 14.3465 19.0121 14.9184 18.5903 15.3403C18.1684 15.7621 17.5965 15.9993 17 16Z" fill="white"/>
</svg>
