<svg width="39" height="23" viewBox="0 0 39 23" fill="none" xmlns="http://www.w3.org/2000/svg">
<path d="M8.47268 2.29079C9.55114 4.95407 10.9179 7.46509 12.7181 9.71928C12.9569 10.0193 13.2578 10.286 13.5749 10.5031C14.038 10.8211 14.4749 10.7094 14.6632 10.1796C14.8624 9.6237 15.0452 8.49705 15.056 7.91328C15.0858 6.38791 15.0516 5.38824 14.9696 3.86474C14.9165 2.88897 14.5696 2.03218 13.1343 1.77358C12.6911 1.6934 12.6499 1.32854 12.9347 0.964579C13.5275 0.206829 14.3534 0.0860669 15.249 0.0382755C16.7005 -0.040126 18.1573 0.0238591 19.6106 0.0382755C20.2026 0.0437064 20.7981 0.0913994 21.3811 0.218481C22.1415 0.38427 22.5487 0.917676 22.674 1.66002C22.7389 2.04295 22.7723 2.43663 22.7632 2.8241C22.7254 4.48909 22.6452 6.1532 22.6262 7.8173C22.6181 8.47049 22.6658 9.13996 22.8055 9.77606C23.001 10.6626 23.6047 10.8851 24.2219 10.2446C25.0057 9.43105 25.6968 8.51561 26.3455 7.58585C27.5239 5.89469 28.4041 4.03873 29.1619 2.1251C29.5538 1.13767 29.8539 0.923206 30.916 0.92054C32.9126 0.915998 34.9092 0.91422 36.9058 0.92054C37.2599 0.922317 37.6301 0.955692 37.9644 1.06204C38.5068 1.23503 38.7221 1.6774 38.5951 2.23875C38.2986 3.5542 37.5878 4.67226 36.8265 5.74717C35.6047 7.47161 34.3244 9.15467 33.074 10.8593C32.9145 11.0764 32.774 11.308 32.6433 11.5431C32.1756 12.3882 32.2081 12.8621 32.8901 13.5657C33.9758 14.6856 35.1381 15.7334 36.1895 16.8839C36.9536 17.721 37.6608 18.6291 38.2662 19.585C39.0321 20.7941 38.559 21.9329 37.1283 22.1357C36.2283 22.2627 31.8317 22.1366 31.6045 22.1357C30.4224 22.1303 29.3863 21.7203 28.552 20.9176C27.624 20.0238 26.7806 19.0435 25.8896 18.111C25.6211 17.8299 25.3345 17.5605 25.0256 17.3253C24.2966 16.7694 23.5813 16.8928 23.2407 17.7488C22.9497 18.4841 22.6983 20.4148 22.6866 20.5797C22.6253 21.4419 22.0766 21.9915 21.1107 22.0446C18.3222 22.196 15.6201 21.8851 13.1029 20.5364C10.9694 19.394 9.26568 17.7785 7.78987 15.8946C5.44553 12.9023 3.59381 9.61314 1.90324 6.22736C1.81684 6.05426 0.104548 2.41066 0.0585342 2.23855C-0.0944179 1.66229 0.0482649 1.1118 0.535164 0.922317C0.838698 0.804221 6.4842 0.921922 6.5781 0.926958C7.47893 0.975736 8.09321 1.3558 8.47268 2.29079Z" fill="white"/>
</svg>
